<?xml version="1.0" encoding="UTF-8"?>
<svg id="Camada_2" data-name="Camada 2" xmlns="http://www.w3.org/2000/svg" xmlns:xlink="http://www.w3.org/1999/xlink" viewBox="0 0 502.91 137.38">
  <defs>
    <style>
      .cls-1 {
        fill: url(#Gradiente_sem_nome_109);
      }

      .cls-1, .cls-2 {
        fill-rule: evenodd;
      }

      .cls-2 {
        fill: url(#Gradiente_sem_nome_97);
      }

      .cls-3 {
        fill: url(#Gradiente_sem_nome_110);
      }

      .cls-4 {
        fill: url(#Gradiente_sem_nome_112);
      }
    </style>
    <linearGradient id="Gradiente_sem_nome_110" data-name="Gradiente sem nome 110" x1="354.84" y1="24.02" x2="354.84" y2="86.79" gradientUnits="userSpaceOnUse">
      <stop offset="0" stop-color="#666"/>
      <stop offset=".17" stop-color="#606060"/>
      <stop offset=".39" stop-color="#515151"/>
      <stop offset=".62" stop-color="#393939"/>
      <stop offset=".86" stop-color="#161616"/>
      <stop offset="1" stop-color="#000"/>
    </linearGradient>
    <linearGradient id="Gradiente_sem_nome_112" data-name="Gradiente sem nome 112" x1="242.59" y1="124.15" x2="462.32" y2="124.15" gradientUnits="userSpaceOnUse">
      <stop offset="0" stop-color="#e6b464"/>
      <stop offset=".28" stop-color="#cb9d56"/>
      <stop offset=".87" stop-color="#876234"/>
      <stop offset="1" stop-color="#78552d"/>
    </linearGradient>
    <linearGradient id="Gradiente_sem_nome_97" data-name="Gradiente sem nome 97" x1="40.49" y1="68.5" x2="162.84" y2="68.5" gradientUnits="userSpaceOnUse">
      <stop offset="0" stop-color="#ffe196"/>
      <stop offset=".28" stop-color="#fdde93"/>
      <stop offset=".45" stop-color="#f9d78b"/>
      <stop offset=".59" stop-color="#f2ca7c"/>
      <stop offset=".72" stop-color="#e8b768"/>
      <stop offset=".74" stop-color="#e6b464"/>
    </linearGradient>
    <linearGradient id="Gradiente_sem_nome_109" data-name="Gradiente sem nome 109" x1="98.8" y1="113.31" x2="-103.06" y2="-27.63" gradientUnits="userSpaceOnUse">
      <stop offset="0" stop-color="#be8c46"/>
      <stop offset=".17" stop-color="#bb8945"/>
      <stop offset=".28" stop-color="#b28241"/>
      <stop offset=".38" stop-color="#a3773c"/>
      <stop offset=".46" stop-color="#8e6635"/>
      <stop offset=".53" stop-color="#78552d"/>
    </linearGradient>
  </defs>
  <g id="content">
    <g>
      <path class="cls-3" d="M225.65,75.69c-1.13-.08-2.02-.4-2.43-.81-.32-.32-.4-2.27-.4-14.34v-13.53c0-11.02.65-19.68,1.05-23-1.3.24-5.1.4-9.8.4-2.51,0-5.99-.08-7.29-.24.65,3.08,1.3,11.91,1.3,23.49v14.26c0,12.47-.65,20.33-.97,23.49,1.38-.16,3.4-.24,7.69-.24,8.18,0,11.58.49,23.65.49,4.13,0,5.83,0,6.4-.24.65-2.51,2.11-8.99,3.16-11.74-2.92,1.54-8.59,2.27-14.9,2.27-3.32,0-5.75-.08-7.45-.24ZM290.86,36.49c-1.62-3.48-2.35-4.13-2.83-4.13-.65,0-1.13.73-2.92,4.13l-13.77,29c-5.1,10.12-8.26,16.36-10.29,20.01,1.21-.08,4.13-.32,8.1-.32,3.24,0,4.86.08,6.32.24.81-3.16,1.62-5.83,3.24-9.64,0-.16.08-.16.32-.16h15.63c.24,0,.32,0,.32.16,1.3,2.35,3.08,6.56,4.37,9.72,1.78-.16,6.48-.32,10.53-.32,1.05,0,3.97.08,7.13.24-2.59-3.24-6.4-10.69-10.12-17.82-6.88-13.53-14.74-28.59-16.04-31.1ZM291.34,66.78h-9.31c-.24,0-.24-.08-.16-.32l4.7-11.18,4.94,11.18c.08.24,0,.32-.16.32ZM369.75,33.33c1.13,11.26,1.3,25.03,1.3,26.57-12.07-8.34-24.54-17.82-34.34-26-1.62-1.38-2.35-1.54-2.67-1.54-.65,0-.81.24-.81,3.56,0,11.5-.89,42.36-1.7,49.57.81-.08,6.56-.32,7.69-.32,2.11,0,4.45,0,6.48.24-1.05-5.51-1.46-14.34-1.62-26.32,8.26,6.24,17.17,12.96,26.89,20.65,6.97,5.43,9.07,7.05,9.96,7.05.65,0,.89-.4.89-3.08v-7.37c.08-17.9.81-38.72,1.7-43.17-.65.16-4.78.4-8.02.4-1.62,0-4.78-.08-5.75-.24ZM427.1,36.49c-1.62-3.48-2.35-4.13-2.83-4.13-.65,0-1.13.73-2.92,4.13l-13.77,29c-5.1,10.12-8.26,16.36-10.29,20.01,1.21-.08,4.13-.32,8.1-.32,3.24,0,4.86.08,6.32.24.81-3.16,1.62-5.83,3.24-9.64,0-.16.08-.16.32-.16h15.63c.24,0,.32,0,.32.16,1.3,2.35,3.08,6.56,4.37,9.72,1.78-.16,6.48-.32,10.53-.32,1.05,0,3.97.08,7.13.24-2.59-3.24-6.4-10.69-10.12-17.82-6.88-13.53-14.74-28.59-16.04-31.1ZM427.58,66.78h-9.31c-.24,0-.24-.08-.16-.32l4.7-11.18,4.94,11.18c.08.24,0,.32-.16.32ZM490.36,53.82l-3.81-2.43c-3.89-2.43-4.37-3.97-4.37-5.75,0-2.43,1.78-4.45,5.83-4.45,7.21,0,11.26,4.13,12.64,5.75,0-6.16.65-12.47.89-13.36-.57,0-2.43-.24-5.91-.73-2.02-.32-4.78-.49-8.02-.49-11.66,0-18.95,7.21-18.95,15.88,0,5.43,1.86,10.69,10.53,16.04l3.81,2.27c4.86,3,5.59,4.54,5.59,6.4,0,2.43-1.86,4.21-5.99,4.21-6.16,0-11.74-4.13-14.82-7.61.08,4.86-.57,12.07-.89,13.69,3.24,2.11,10.21,3.08,15.07,3.08,3.08,0,8.5-.4,12.88-2.92,5.43-3,8.1-8.5,8.1-13.53,0-6.72-3.32-10.37-12.55-16.04Z"/>
      <path class="cls-4" d="M242.59,137h3.78v-11.15h9.26v-3.55h-9.26v-7.48h11.49v-3.55h-15.27v25.74ZM273.55,137h3.78v-25.74h-3.78v25.74ZM312.82,130.08l-14.52-18.82h-3.21v25.74h3.78v-18.84l14.52,18.84h3.21v-25.74h-3.78v18.82ZM340.34,111.26l-9.19,25.74h3.86l2.14-6.01h11.51l2.14,6.01h3.86l-9.19-25.74h-5.14ZM338.42,127.44l4.49-12.58,4.49,12.58h-8.98ZM386.95,130.08l-14.52-18.82h-3.21v25.74h3.78v-18.84l14.52,18.84h3.21v-25.74h-3.78v18.82ZM414.75,115.8c1.37-.83,2.93-1.25,4.67-1.25,1.56,0,3.01.28,4.33.85,1.32.57,2.56,1.64,3.72,3.23l3.7-1.1c-1.18-2.02-2.71-3.62-4.57-4.82-1.87-1.2-4.26-1.8-7.18-1.8-1.87,0-3.58.33-5.16.98-1.58.66-2.95,1.58-4.12,2.76-1.17,1.18-2.09,2.58-2.74,4.2-.66,1.61-.98,3.38-.98,5.29,0,2.52.54,4.78,1.63,6.78,1.08,2,2.6,3.58,4.55,4.72,1.95,1.15,4.23,1.72,6.82,1.72,2.92,0,5.32-.6,7.18-1.8,1.86-1.2,3.39-2.8,4.57-4.82l-3.7-1.1c-1.16,1.59-2.4,2.67-3.72,3.23-1.32.57-2.77.85-4.33.85-1.74,0-3.29-.42-4.67-1.25-1.37-.83-2.46-1.97-3.27-3.42-.81-1.45-1.21-3.09-1.21-4.93s.4-3.52,1.21-4.95c.81-1.44,1.9-2.57,3.27-3.4ZM462.32,114.82v-3.55h-15.65v25.74h15.65v-3.59h-11.87v-7.56h9.64v-3.55h-9.64v-7.48h11.87Z"/>
      <g>
        <path class="cls-2" d="M178.55,103.73c-1.16-4.85-3.96-8.6-8.27-11.09l-19.53-11.27L0,0l117.43,92.97-53.82,14.68-14.68,29.36,101.35-32.88,1.02-.27c9.85-2.46,20.12.19,27.48,7.2.45-2.36.37-4.81-.23-7.32ZM83.18,88.07L24.46,53.82l34.25,44.04,24.46-9.79Z"/>
        <path class="cls-1" d="M0,0l19.57,39.14,97.86,53.82L0,0ZM151.3,103.86l-1.02.27-101.35,32.88,98.07-27.13,1.02-.27c10.14-2.53,20.73.36,28.13,7.83.01-.02.03-.04.04-.07,1.31-2.01,2.18-4.12,2.59-6.31-7.36-7-17.63-9.66-27.48-7.2ZM24.46,53.82l14.68,34.25,19.57,9.79L24.46,53.82Z"/>
      </g>
    </g>
  </g>
</svg>